<?xml version="1.0" encoding="UTF-8"?>
<svg xmlns="http://www.w3.org/2000/svg" xmlns:xlink="http://www.w3.org/1999/xlink" width="67px" height="100px" viewBox="0 0 67 100" version="1.1">
<g id="surface1">
<path style=" stroke:none;fill-rule:nonzero;fill:rgb(0%,0%,0%);fill-opacity:1;" d="M 21.871094 15.800781 C 21.398438 15.96875 21.078125 16.265625 20.847656 16.75 C 20.652344 17.160156 20.644531 17.398438 20.832031 19.25 C 20.902344 19.980469 21.0625 21.644531 21.1875 22.949219 C 21.316406 24.253906 21.460938 25.773438 21.515625 26.324219 C 21.570312 26.875 21.714844 28.40625 21.84375 29.726562 C 21.96875 31.046875 22.113281 32.574219 22.167969 33.125 C 22.222656 33.675781 22.316406 34.609375 22.371094 35.199219 C 22.425781 35.789062 22.492188 36.5 22.519531 36.773438 C 22.585938 37.414062 22.914062 40.816406 23.175781 43.574219 C 23.285156 44.753906 23.429688 46.273438 23.496094 46.949219 C 23.71875 49.15625 23.742188 49.453125 23.710938 49.480469 C 23.699219 49.5 22.613281 49.191406 21.304688 48.800781 C 19.996094 48.40625 18.789062 48.046875 18.625 47.996094 C 18.460938 47.949219 16.808594 47.453125 14.960938 46.90625 L 11.597656 45.894531 L 9.757812 45.910156 C 7.925781 45.925781 7.917969 45.925781 7.691406 46.046875 C 7.339844 46.230469 7.164062 46.386719 6.96875 46.664062 C 6.628906 47.15625 6.558594 47.816406 6.785156 48.335938 C 6.835938 48.449219 7.519531 49.488281 8.304688 50.644531 C 9.089844 51.804688 10.113281 53.320312 10.582031 54.011719 C 11.054688 54.703125 11.832031 55.859375 12.320312 56.574219 C 13.152344 57.796875 13.539062 58.371094 15.457031 61.199219 C 15.875 61.820312 16.578125 62.855469 17.015625 63.5 C 18.464844 65.628906 19.535156 67.210938 20.378906 68.449219 C 21.621094 70.285156 24.132812 73.996094 25.261719 75.648438 C 25.566406 76.105469 26.214844 77.058594 26.703125 77.773438 C 27.1875 78.488281 27.875 79.5 28.226562 80.023438 C 28.582031 80.546875 29.265625 81.558594 29.75 82.273438 C 30.234375 82.988281 30.710938 83.660156 30.8125 83.765625 C 30.910156 83.871094 31.136719 84.023438 31.316406 84.113281 L 31.644531 84.273438 L 35.363281 84.273438 L 35.691406 84.113281 C 35.871094 84.023438 36.097656 83.871094 36.199219 83.765625 C 36.300781 83.660156 36.789062 82.980469 37.273438 82.25 C 37.769531 81.519531 38.402344 80.585938 38.683594 80.175781 C 38.964844 79.761719 39.621094 78.796875 40.140625 78.023438 C 40.664062 77.253906 41.890625 75.445312 42.871094 74 C 43.851562 72.554688 44.929688 70.960938 45.277344 70.449219 C 46.304688 68.929688 47.792969 66.738281 48.515625 65.675781 C 48.894531 65.125 49.570312 64.125 50.027344 63.449219 C 51.597656 61.128906 52.453125 59.875 52.960938 59.125 C 53.242188 58.710938 53.828125 57.84375 54.265625 57.199219 C 54.703125 56.554688 55.382812 55.550781 55.773438 54.976562 C 57.246094 52.808594 59.347656 49.703125 59.730469 49.140625 C 59.945312 48.820312 60.167969 48.460938 60.222656 48.339844 C 60.585938 47.515625 60.203125 46.503906 59.363281 46.066406 L 59.09375 45.925781 L 57.273438 45.910156 C 55.824219 45.898438 55.398438 45.910156 55.1875 45.964844 C 55.039062 46.003906 53.632812 46.425781 52.054688 46.898438 C 50.480469 47.371094 48.511719 47.960938 47.679688 48.210938 C 46.851562 48.453125 45.777344 48.773438 45.292969 48.925781 C 43.628906 49.425781 43.328125 49.511719 43.296875 49.484375 C 43.28125 49.464844 43.386719 48.234375 43.527344 46.738281 C 43.675781 45.246094 43.871094 43.214844 43.964844 42.226562 C 44.0625 41.234375 44.171875 40.085938 44.210938 39.675781 C 44.308594 38.726562 44.71875 34.429688 44.816406 33.390625 C 44.992188 31.5 45.4375 26.871094 45.542969 25.824219 C 45.574219 25.550781 45.710938 24.144531 45.847656 22.699219 C 45.980469 21.253906 46.152344 19.480469 46.222656 18.75 C 46.296875 18.019531 46.34375 17.335938 46.324219 17.21875 C 46.238281 16.621094 45.714844 16 45.132812 15.804688 L 44.820312 15.699219 L 33.484375 15.699219 C 22.414062 15.703125 22.140625 15.703125 21.871094 15.800781 Z M 21.871094 15.800781 "/>
</g>
</svg>
